HIERARCHY
ROOT Hips
{
	OFFSET 0.00000 0.00000 0.00000
	CHANNELS 6 Xposition Yposition Zposition Zrotation Yrotation Xrotation 
	JOINT LHipJoint
	{
		OFFSET 0 0 0
		CHANNELS 3 Zrotation Yrotation Xrotation
		JOINT LeftUpLeg
		{
			OFFSET 1.53139 -1.83434 0.76626
			CHANNELS 3 Zrotation Yrotation Xrotation
			JOINT LeftLeg
			{
				OFFSET 2.56112 -7.03663 0.00000
				CHANNELS 3 Zrotation Yrotation Xrotation
				JOINT LeftFoot
				{
					OFFSET 2.59983 -7.14299 0.00000
					CHANNELS 3 Zrotation Yrotation Xrotation
					JOINT LeftToeBase
					{
						OFFSET 0.13742 -0.37757 2.00054
						CHANNELS 3 Zrotation Yrotation Xrotation
						End Site
						{
							OFFSET 0.00000 -0.00000 1.02897
						}
					}
				}
			}
		}
	}
	JOINT RHipJoint
	{
		OFFSET 0 0 0
		CHANNELS 3 Zrotation Yrotation Xrotation
		JOINT RightUpLeg
		{
			OFFSET -1.40122 -1.83435 0.76627
			CHANNELS 3 Zrotation Yrotation Xrotation
			JOINT RightLeg
			{
				OFFSET -2.54052 -6.98003 0.00000
				CHANNELS 3 Zrotation Yrotation Xrotation
				JOINT RightFoot
				{
					OFFSET -2.63179 -7.23079 0.00000
					CHANNELS 3 Zrotation Yrotation Xrotation
					JOINT RightToeBase
					{
						OFFSET -0.24131 -0.66299 2.03908
						CHANNELS 3 Zrotation Yrotation Xrotation
						End Site
						{
							OFFSET -0.00000 -0.00000 1.07391
						}
					}
				}
			}
		}
	}
	JOINT LowerBack
	{
		OFFSET 0 0 0
		CHANNELS 3 Zrotation Yrotation Xrotation
		JOINT Spine
		{
			OFFSET 0.01174 2.10302 -0.29778
			CHANNELS 3 Zrotation Yrotation Xrotation
			JOINT Spine1
			{
				OFFSET 0.00772 2.13227 -0.01247
				CHANNELS 3 Zrotation Yrotation Xrotation
				JOINT Neck
				{
					OFFSET 0 0 0
					CHANNELS 3 Zrotation Yrotation Xrotation
					JOINT Neck1
					{
						OFFSET -0.09219 1.60848 0.31481
						CHANNELS 3 Zrotation Yrotation Xrotation
						JOINT Head
						{
							OFFSET 0.13974 1.65456 -0.31134
							CHANNELS 3 Zrotation Yrotation Xrotation
							End Site
							{
								OFFSET 0.04742 1.69515 -0.14578
							}
						}
					}
				}
				JOINT LeftShoulder
				{
					OFFSET 0 0 0
					CHANNELS 3 Zrotation Yrotation Xrotation
					JOINT LeftArm
					{
						OFFSET 3.24909 1.02882 -0.23993
						CHANNELS 3 Zrotation Yrotation Xrotation
						JOINT LeftForeArm
						{
							OFFSET 5.32955 -0.00000 -0.00000
							CHANNELS 3 Zrotation Yrotation Xrotation
							JOINT LeftHand
							{
								OFFSET 3.69232 -0.00000 -0.00000
								CHANNELS 3 Zrotation Yrotation Xrotation
								JOINT LeftFingerBase
								{
									OFFSET 0 0 0
									CHANNELS 3 Zrotation Yrotation Xrotation
									JOINT LeftHandIndex1
									{
										OFFSET 0.53660 -0.00000 -0.00000
										CHANNELS 3 Zrotation Yrotation Xrotation
										End Site
										{
											OFFSET 0.43262 -0.00000 -0.00000
										}
									}
								}
								JOINT LThumb
								{
									OFFSET 0 0 0
									CHANNELS 3 Zrotation Yrotation Xrotation
									End Site
									{
										OFFSET 0.43922 -0.00000 0.43922
									}
								}
							}
						}
					}
				}
				JOINT RightShoulder
				{
					OFFSET 0 0 0
					CHANNELS 3 Zrotation Yrotation Xrotation
					JOINT RightArm
					{
						OFFSET -3.21387 0.93002 -0.34594
						CHANNELS 3 Zrotation Yrotation Xrotation
						JOINT RightForeArm
						{
							OFFSET -5.23431 -0.00000 0.00000
							CHANNELS 3 Zrotation Yrotation Xrotation
							JOINT RightHand
							{
								OFFSET -3.55301 -0.00000 -0.00000
								CHANNELS 3 Zrotation Yrotation Xrotation
								JOINT RightFingerBase
								{
									OFFSET 0 0 0
									CHANNELS 3 Zrotation Yrotation Xrotation
									JOINT RightHandIndex1
									{
										OFFSET -0.77252 -0.00000 -0.00000
										CHANNELS 3 Zrotation Yrotation Xrotation
										End Site
										{
											OFFSET -0.62283 -0.00000 -0.00000
										}
									}
								}
								JOINT RThumb
								{
									OFFSET 0 0 0
									CHANNELS 3 Zrotation Yrotation Xrotation
									End Site
									{
										OFFSET -0.63234 -0.00000 0.63234
									}
								}
							}
						}
					}
				}
			}
		}
	}
}
MOTION
Frames: 15
Frame Time: 0.0769231
0.00 0.00 0.00 0 0 0 0 0 0 -21 0 0 0 0 0 0 0 0 0 0 0 0 0 0 21 0 0 0 0 0 0 0 0 0 0 0 0 0 0 0 0 0 0 0 0 0 0 -16 0 0 21 0 0 11 0 0 0 -8 0 0 0 0 0 0 0 0 0 0 0 0 0 0 0 0 0 0 0 0 8 0 0 0 0 0 0 0 0 0 0 0 0 0 0 0 0 0
0.00 0.00 0.00 6.4682 -83.0010 -3.1623 0.0000 0.0000 0.0000 -22.5292 -3.6157 -7.1304 1.6041 7.9875 22.6762 0.6861 -9.0370 -15.1333 1.3196 -7.2755 -20.5342 0.0000 0.0000 0.0000 24.3390 4.6304 -9.7299 -2.9306 -10.5819 30.8824 -1.2155 1.0865 -20.5153 -0.0664 -1.6631 4.5755 -1.4295 -0.4310 6.1422 0.4063 -0.6683 -1.1148 1.2904 -0.2876 -4.5799 -9.3337 -1.9382 -21.2998 7.6208 -2.4616 30.7001 4.2338 -1.2757 14.3093 -0.0000 -0.0000 0.0000 -84.0655 -6.7640 57.2981 140.8826 -47.5382 -102.2146 -0.0000 0.0000 -15.5569 21.2768 14.3708 5.5206 -7.1250 0.0000 -0.0000 -5.8075 45.2736 -0.0394 -0.0000 -0.0000 0.0000 89.4234 -4.7828 17.1612 -16.3426 25.9830 -3.7948 0.0000 0.0000 5.2770 -15.8054 8.1805 -2.3066 7.1250 -0.0000 -0.0000 7.9971 -21.5145 4.5507
0.00 0.00 0.00 8.6626 -83.2942 -5.6580 0.0000 0.0000 0.0000 -22.5455 -4.6140 -6.2008 1.6423 8.0774 22.9495 0.6617 -8.6840 -14.8232 0.6288 -5.0741 -14.1199 0.0000 0.0000 0.0000 24.3585 4.9300 -9.2867 -3.0045 -10.7023 31.2823 -1.2645 1.0598 -20.9407 -0.0886 -1.9198 5.2842 -1.7872 -0.4731 6.4544 0.5682 -0.7503 -0.9684 1.6703 -0.3176 -4.5952 -10.5187 -2.8514 -19.8409 7.3720 -3.7382 32.7166 4.1654 -2.1321 15.0778 -0.0000 0.0000 0.0000 -83.7039 -2.1593 50.4920 127.7335 -53.8697 -92.0054 -0.0000 0.0000 -10.3070 21.2647 14.8680 5.7026 -7.1250 0.0000 -0.0000 -5.9210 45.7964 -0.1168 -0.0000 0.0000 0.0000 89.3400 -4.4560 15.7285 -16.5592 26.2730 -3.8902 0.0000 0.0000 6.1454 -15.7009 8.5468 -2.3922 7.1250 -0.0000 -0.0000 8.0627 -21.1433 4.6572
0.00 0.00 0.00 10.2224 -83.4170 -7.3859 0.0000 0.0000 0.0000 -22.6335 -5.7406 -5.9822 1.7876 8.4088 23.9628 0.6903 -8.2082 -15.0311 0.3645 -3.8784 -10.7349 0.0000 0.0000 0.0000 24.3195 4.6854 -9.0001 -2.9998 -10.6947 31.2569 -1.2941 1.3904 -21.0974 -0.0575 -1.5478 4.2576 -1.8496 -0.6171 6.5748 0.6348 -0.9460 -0.7514 1.7939 -0.4163 -4.4271 -11.2750 -3.4165 -18.9947 7.0992 -4.5752 34.3601 4.0760 -2.7294 15.7957 0.0000 0.0000 0.0000 -84.0493 0.2753 44.7847 111.3216 -58.2106 -78.3541 -0.0000 0.0000 -6.5780 21.7657 16.2043 6.3579 -7.1250 0.0000 -0.0000 -5.7429 47.2731 -0.3231 0.0000 0.0000 0.0000 89.3666 -4.3544 15.3777 -17.0385 26.9086 -4.1048 0.0000 0.0000 6.1514 -15.8803 8.7859 -2.4881 7.1250 -0.0000 -0.0000 7.9279 -20.8888 4.6238
0.00 0.00 0.00 5.3595 -83.4205 -2.6849 0.0000 0.0000 0.0000 -21.7833 -6.0409 -7.0186 2.1384 9.1485 26.2611 0.7048 -8.2432 -15.1812 0.5230 -4.6346 -12.8694 0.0000 0.0000 0.0000 25.1850 4.6776 -8.6572 -2.9552 -10.6221 31.0159 -1.2918 1.2607 -21.1142 -0.0440 -1.3531 3.7208 -1.1598 -0.6690 6.9164 0.8833 -0.9539 -0.5427 1.6680 -0.4365 -4.4090 -11.9675 -3.7947 -18.7707 7.0100 -5.1395 35.9696 4.1039 -3.1656 16.6603 -0.0000 -0.0000 0.0000 -84.6208 1.5074 39.7375 90.5682 -59.9988 -60.4921 -0.0000 0.0000 -4.1855 24.1965 19.9372 8.7112 -7.1250 0.0000 -0.0000 -4.2930 51.6161 -0.7006 -0.0000 -0.0000 0.0000 89.2473 -4.3926 15.5305 -17.4746 27.4792 -4.3041 0.0000 0.0000 5.6992 -16.1004 8.9990 -2.5851 7.1250 -0.0000 -0.0000 7.7653 -20.6583 4.5679
0.00 0.00 0.00 0.6944 -83.3816 1.6527 0.0000 0.0000 0.0000 -21.0166 -7.5831 -8.0973 2.7527 10.2836 29.9001 0.6520 -7.6582 -14.5577 0.5308 -4.6684 -12.9653 0.0000 0.0000 0.0000 26.0166 4.6233 -7.9291 -2.8667 -10.4760 30.5325 -1.4040 2.2616 -21.7791 -0.4174 -4.1470 11.4907 -0.1125 -0.7139 7.5027 0.8135 -0.9351 -0.0676 1.0093 -0.4567 -4.2633 -12.3938 -4.1215 -18.2903 7.6210 -5.9126 36.4456 4.3229 -3.5055 16.9496 0.0000 -0.0000 0.0000 -85.2039 2.2951 33.1449 68.0267 -58.0946 -41.0923 -0.0000 -0.0000 4.5966 23.1199 26.5458 10.8027 -7.1250 0.0000 -0.0000 -7.8133 58.3204 -2.5559 0.0000 -0.0000 0.0000 89.6226 -4.1560 15.9656 -17.8071 27.9094 -4.4586 0.0000 0.0000 4.9412 -16.0183 9.2225 -2.6344 7.1250 -0.0000 -0.0000 7.8196 -20.4329 4.6406
0.00 0.00 0.00 -3.5636 -83.4578 5.2731 0.0000 0.0000 0.0000 -18.8023 -8.6948 -16.0535 5.8052 14.2369 44.1950 -0.0005 -9.6932 -6.7869 0.9160 -6.0983 -17.0699 0.0000 0.0000 0.0000 27.3106 3.6506 -5.6297 -2.3413 -9.5435 27.5106 -1.1568 1.7086 -19.8361 -0.1371 -2.3863 6.5746 0.4764 -0.4588 9.2165 0.9176 -0.5501 0.8824 0.7553 -0.2862 -4.2471 -12.7066 -4.3975 -17.6980 8.2412 -6.5419 36.1507 4.5297 -3.7240 16.7886 0.0000 0.0000 0.0000 -86.6119 2.6560 21.8373 38.0795 -46.8900 -17.0236 -0.0000 -0.0000 12.2317 23.7116 26.7447 11.1805 -7.1250 0.0000 -0.0000 -7.2556 58.6608 -2.4315 0.0000 0.0000 0.0000 89.7892 -3.9269 15.5123 -17.4957 27.5066 -4.3138 0.0000 0.0000 5.1661 -16.1537 8.7770 -2.5307 7.1250 -0.0000 -0.0000 7.7316 -20.8840 4.5080
0.00 0.00 0.00 -26.6016 -86.9776 30.6214 0.0000 0.0000 0.0000 -18.2161 -13.1258 -26.4653 0.9347 6.1585 17.2450 0.1198 -1.5964 -6.1765 3.4866 -11.4439 -33.7921 0.0000 0.0000 0.0000 28.8471 0.2793 3.3571 -0.7551 -5.5499 15.4839 -0.9281 6.7556 -17.1925 -0.2727 -3.3591 9.2803 2.9930 2.1467 9.9272 0.2233 3.1235 1.6223 -1.8487 1.4894 -3.7216 -12.1066 -4.5079 -18.0820 7.1224 -5.9749 33.9520 3.9588 -3.3930 15.6149 -0.0000 0.0000 0.0000 -88.9036 11.4239 -1.3354 13.2040 -21.5854 -2.5278 -0.0000 -0.0000 10.9971 20.5849 27.3308 9.7837 -7.1250 0.0000 -0.0000 -10.9748 58.5441 -3.6631 -0.0000 0.0000 0.0000 88.9912 -6.0118 15.0197 -15.2111 24.4393 -3.3128 0.0000 0.0000 3.7741 -15.4597 7.2448 -1.9975 7.1250 -0.0000 -0.0000 8.2779 -22.4895 4.5280
0.00 0.00 0.00 -177.8670 -86.6962 181.5520 0.0000 0.0000 0.0000 -23.2309 -3.2684 -19.8272 0.7792 5.6359 15.7316 -0.3430 -10.9461 0.1124 0.6222 -5.0479 -14.0451 0.0000 0.0000 0.0000 24.5936 -2.5677 9.1770 -1.8245 -8.4905 24.2141 0.1586 8.9532 -2.6272 -0.0018 -0.2741 0.7532 0.5806 3.3532 8.3255 -1.6010 4.4137 0.8568 -2.4743 2.1575 -3.5981 -11.7156 -4.1723 -19.5242 7.7828 -5.7183 34.5258 4.2458 -3.1473 16.2094 0.0000 -0.0000 0.0000 -88.0694 10.8574 5.2775 15.7047 -25.1186 -3.5197 -0.0000 -0.0000 6.0245 17.8392 26.2671 8.1057 -7.1250 0.0000 -0.0000 -13.3197 56.8845 -3.9271 0.0000 -0.0000 0.0000 89.9427 -3.5314 20.1409 -18.7204 29.0698 -4.8943 0.0000 0.0000 3.2233 -15.2041 8.9802 -2.4291 7.1250 -0.0000 -0.0000 8.4081 -20.7237 4.9414
0.00 0.00 0.00 -201.3240 -85.5266 203.5280 0.0000 0.0000 0.0000 -25.9645 -0.1611 -14.0128 0.5319 4.6734 12.9794 -0.4139 -11.9288 0.3525 0.1975 -2.8615 -7.8934 0.0000 0.0000 0.0000 20.6567 -1.1178 2.0360 -4.8989 -13.2690 40.3840 0.1038 9.9265 12.2630 -0.1074 -2.1129 5.8178 -1.2726 2.9849 8.7759 -2.0496 3.7081 0.8515 -1.8560 1.8223 -3.9743 -10.9571 -3.7000 -20.1291 7.3127 -4.9821 34.2249 4.0344 -2.7808 16.0502 0.0000 -0.0000 0.0000 -86.7570 8.2052 9.4638 16.4282 -26.0979 -3.8324 -0.0000 -0.0000 6.1482 17.3894 24.8634 7.5014 -7.1250 0.0000 -0.0000 -13.0632 55.4022 -3.3776 0.0000 -0.0000 0.0000 89.6309 -3.3062 22.4330 -20.6606 31.4301 -5.8720 0.0000 0.0000 3.6867 -15.5790 9.6258 -2.6692 7.1250 -0.0000 -0.0000 8.1254 -20.0428 4.8975
0.00 0.00 0.00 -218.6290 -84.3663 218.9870 0.0000 0.0000 0.0000 -28.4579 3.1202 -6.7346 0.2180 3.0056 8.2943 -0.4580 -12.1847 1.6532 0.0191 0.8922 2.4521 0.0000 0.0000 0.0000 16.9325 1.3695 -7.0789 -9.1336 -16.8929 56.5511 0.0408 3.5958 0.9739 -0.0148 0.7859 -2.1598 -3.3149 2.1900 10.0071 -2.2620 2.3570 0.7647 -0.8243 1.1814 -4.8544 -10.6014 -2.8945 -20.0822 7.0209 -3.7699 33.8844 4.0635 -2.2643 15.6885 -0.0000 0.0000 0.0000 -85.0037 4.5325 14.8759 17.5742 -27.6085 -4.3501 -0.0000 -0.0000 4.2721 20.4221 24.6859 8.8389 -7.1250 0.0000 -0.0000 -9.8431 55.8358 -2.6352 -0.0000 0.0000 0.0000 89.6544 -2.5093 22.2305 -21.8189 32.7718 -6.4876 0.0000 0.0000 2.6535 -16.2493 9.4484 -2.7393 7.1250 -0.0000 -0.0000 7.6505 -20.1877 4.5809
0.00 0.00 0.00 -269.0470 -84.9594 268.5550 0.0000 0.0000 0.0000 -30.7381 1.5846 1.3683 0.5675 4.8248 13.4096 -0.0201 -11.8298 -8.0117 0.0288 -1.0963 -3.0138 0.0000 0.0000 0.0000 12.1087 6.2565 -25.6296 -5.6460 -14.0763 43.5439 -0.3793 -3.6668 -13.5662 -0.1242 -2.2716 6.2569 -6.2932 0.0149 10.5644 -1.1327 -0.8494 0.4794 2.4848 -0.2977 -5.3626 -10.8446 -3.0878 -20.3404 7.2588 -3.9203 32.8131 4.1405 -2.2773 15.2692 -0.0000 -0.0000 0.0000 -82.1400 -7.3907 24.6715 21.3521 -32.2371 -6.2367 -0.0000 -0.0000 2.3849 24.2037 23.4509 10.1420 -7.1250 0.0000 -0.0000 -5.3718 55.3355 -1.3658 -0.0000 -0.0000 0.0000 88.3003 -3.6788 19.5589 -19.7239 30.3083 -5.3913 0.0000 0.0000 2.8247 -16.6892 9.1643 -2.7338 7.1250 -0.0000 -0.0000 7.3404 -20.4560 4.3475
0.00 0.00 0.00 -276.1070 -84.9263 275.9100 0.0000 0.0000 0.0000 -30.3677 2.9130 13.5035 0.0070 0.5394 1.4822 -0.0442 -9.4954 -5.8461 0.3035 -3.5422 -9.7921 0.0000 0.0000 0.0000 10.0748 10.1140 -26.2856 -1.3649 -7.3944 20.8893 -0.1996 2.4475 -7.9459 -0.0143 0.7731 -2.1247 -6.4514 -0.3516 9.8052 -0.8552 -1.2656 0.6864 2.9099 -0.5206 -4.6713 -10.8633 -3.1113 -20.2791 7.5395 -4.0771 32.8338 4.2360 -2.3122 15.2915 -0.0000 0.0000 0.0000 -81.9610 -10.4681 26.8188 23.3330 -34.4509 -7.3258 -0.0000 -0.0000 2.2863 22.9786 22.1958 9.1008 -7.1250 0.0000 -0.0000 -6.2150 53.7749 -1.3449 -0.0000 0.0000 0.0000 89.2580 -4.4584 13.7974 -15.1977 24.4208 -3.3072 0.0000 0.0000 7.2297 -15.3203 8.6478 -2.3587 7.1250 -0.0000 -0.0000 8.3337 -21.0582 4.8332
0.00 0.00 0.00 -344.2060 -87.8266 343.0640 0.0000 0.0000 0.0000 -25.2963 -2.2737 11.2961 2.7646 10.3038 29.9662 0.1258 -7.1303 12.6696 0.2424 -3.1684 -8.7480 0.0000 0.0000 0.0000 18.6925 5.2792 -16.0864 -1.5499 -7.8577 22.2828 0.2927 10.9811 -1.7847 -0.0193 -0.8961 2.4630 -2.4615 -0.8672 9.6538 1.2766 -1.3866 0.6941 2.9046 -0.6367 -4.6021 -10.7545 -2.3531 -20.9628 5.8217 -2.3323 34.0945 3.8513 -1.8478 15.8071 -0.0000 0.0000 0.0000 -87.6653 0.1152 23.6024 17.4098 -27.3948 -4.2742 -0.0000 -0.0000 5.7382 22.3918 23.6723 9.3929 -7.1250 0.0000 -0.0000 -7.3601 55.1966 -1.8500 -0.0000 0.0000 0.0000 90.0659 -8.7912 4.9022 -12.4698 20.5055 -2.2642 0.0000 0.0000 9.5997 -15.1426 7.9665 -2.1479 7.1250 -0.0000 -0.0000 8.4829 -21.7635 4.7845
0.00 0.00 0.00 -393.8880 -85.0909 392.1970 0.0000 0.0000 0.0000 -20.1437 -3.9378 1.6282 6.2866 14.7005 46.1215 0.0631 -6.3031 10.4853 0.8315 -5.8175 -16.2557 0.0000 0.0000 0.0000 23.1846 1.6538 -10.5967 -1.0369 -6.4763 18.1730 0.2220 10.1990 -2.5652 -0.0275 -1.0700 2.9415 1.1871 -0.5204 10.5362 1.9278 -0.4996 0.8557 1.4187 -0.2734 -5.0103 -10.6529 -2.9765 -21.6418 5.7293 -3.1748 34.4514 3.6466 -2.1890 16.2456 0.0000 0.0000 0.0000 -87.5025 3.5205 26.8766 17.2351 -27.1667 -4.1941 -0.0000 -0.0000 10.1681 19.3258 23.6096 7.9952 -7.1250 0.0000 -0.0000 -10.5052 54.5255 -2.4792 0.0000 0.0000 0.0000 89.7662 -9.0537 7.8481 -13.4970 22.0110 -2.6366 0.0000 0.0000 8.3789 -14.4474 8.2950 -2.1287 7.1250 -0.0000 -0.0000 8.9734 -21.4584 5.1306
